HIERARCHY
ROOT Hips
{
	OFFSET 0.00000 0.00000 0.00000
	CHANNELS 6 Xposition Yposition Zposition Zrotation Yrotation Xrotation 
	JOINT LHipJoint
	{
		OFFSET 0 0 0
		CHANNELS 3 Zrotation Yrotation Xrotation
		JOINT LeftHip
		{
			OFFSET 1.51378 -1.89840 0.47569
			CHANNELS 3 Zrotation Yrotation Xrotation
			JOINT LeftKnee
			{
				OFFSET 2.53380 -6.96157 0.00000
				CHANNELS 3 Zrotation Yrotation Xrotation
				JOINT LeftAnkle
				{
					OFFSET 2.74874 -7.55212 0.00000
					CHANNELS 3 Zrotation Yrotation Xrotation
					JOINT LeftToe
					{
						OFFSET 0.18263 -0.50178 1.99677
						CHANNELS 3 Zrotation Yrotation Xrotation
						End Site
						{
							OFFSET 0.00000 -0.00000 1.03711
						}
					}
				}
			}
		}
	}
	JOINT RHipJoint
	{
		OFFSET 0 0 0
		CHANNELS 3 Zrotation Yrotation Xrotation
		JOINT RightHip
		{
			OFFSET -1.43037 -1.89840 0.47569
			CHANNELS 3 Zrotation Yrotation Xrotation
			JOINT RightKnee
			{
				OFFSET -2.69849 -7.41406 0.00000
				CHANNELS 3 Zrotation Yrotation Xrotation
				JOINT RightAnkle
				{
					OFFSET -2.69369 -7.40087 0.00000
					CHANNELS 3 Zrotation Yrotation Xrotation
					JOINT RightToe
					{
						OFFSET -0.28932 -0.79491 2.04975
						CHANNELS 3 Zrotation Yrotation Xrotation
						End Site
						{
							OFFSET 0.00009 0.00010 1.09536
						}
					}
				}
			}
		}
	}
	JOINT lowerback
	{
		OFFSET 0 0 0
		CHANNELS 3 Zrotation Yrotation Xrotation
		JOINT Chest
		{
			OFFSET 0.01912 1.94784 -0.02419
			CHANNELS 3 Zrotation Yrotation Xrotation
			JOINT Chest2
			{
				OFFSET 0.07565 1.94258 0.01909
				CHANNELS 3 Zrotation Yrotation Xrotation
				JOINT lowerneck
				{
					OFFSET 0 0 0
					CHANNELS 3 Zrotation Yrotation Xrotation
					JOINT Neck
					{
						OFFSET -0.07010 1.86195 0.18976
						CHANNELS 3 Zrotation Yrotation Xrotation
						JOINT Head
						{
							OFFSET 0.02284 1.86595 -0.31497
							CHANNELS 3 Zrotation Yrotation Xrotation
							End Site
							{
								OFFSET 0.01200 1.90122 -0.12838
							}
						}
					}
				}
				JOINT LeftCollar
				{
					OFFSET 0 0 0
					CHANNELS 3 Zrotation Yrotation Xrotation
					JOINT LeftShoulder
					{
						OFFSET 3.39189 0.96331 -0.10437
CHANNELS 3 Zrotation Xrotation Yrotation
						JOINT LeftElbow
						{
OFFSET 0 -5.148450 0.000000
CHANNELS 3 Zrotation Xrotation Yrotation
							JOINT LeftWrist
							{
OFFSET 0 -3.436740 -0.000000
CHANNELS 3 Zrotation Xrotation Yrotation
								JOINT lhand
								{
									OFFSET 0 0 0
CHANNELS 3 Zrotation Xrotation Yrotation
									JOINT LFingers
									{
OFFSET 0 -0.588710 0.000000
CHANNELS 3 Zrotation Xrotation Yrotation
										End Site
										{
OFFSET 0 -0.474630 0.000000
										}
									}
								}
								JOINT LThumb
								{
OFFSET 0 0.000000 0.000000
CHANNELS 3 Zrotation Xrotation Yrotation
									End Site
									{
OFFSET 0 -0.481880 0.481880
									}
								}
							}
						}
					}
				}
				JOINT RightCollar
				{
					OFFSET 0 0 0
					CHANNELS 3 Zrotation Yrotation Xrotation
					JOINT RightShoulder
					{
						OFFSET -3.34934 1.18831 -0.19928
CHANNELS 3 Zrotation Xrotation Yrotation
						JOINT RightElbow
						{
OFFSET 0 -5.421850 0.000000
CHANNELS 3 Zrotation Xrotation Yrotation
							JOINT RightWrist
							{
OFFSET 0 -3.513170 -0.000000
CHANNELS 3 Zrotation Xrotation Yrotation
								JOINT rhand
								{
									OFFSET 0 0 0
CHANNELS 3 Zrotation Xrotation Yrotation
									JOINT RFingers
									{
OFFSET 0 -0.663190 0.000000
CHANNELS 3 Zrotation Xrotation Yrotation
										End Site
										{
OFFSET 0 -0.534680 0.000000
										}
									}
								}
								JOINT RThumb
								{
OFFSET 0 0.000000 0.000000
CHANNELS 3 Zrotation Xrotation Yrotation
									End Site
									{
OFFSET 0 -0.542840 0.542840
									}
								}
							}
						}
					}
				}
			}
		}
	}
}
MOTION
Frames: 9
Frame Time: 0.008333333333333333
0.471555 21.722172 -4.277183 213.578511 -82.177869 -199.666534 0.000000 0.000000 0.000000 -16.413458 -7.475874 -27.345784 4.286816 12.532395 37.642751 0.295054 -11.801094 -11.939662 0.611026 -5.002992 -13.917158 0.000000 0.000000 0.000000 22.148350 18.739751 -46.165653 -19.377545 -19.986799 88.179432 -1.002308 4.702842 -17.932955 -0.070844 1.700823 -4.679892 -2.049964 0.547379 5.635217 2.133412 0.593513 2.159099 3.311578 0.259907 -0.979981 -3.062814 1.322905 -7.315905 -0.761008 0.250928 40.697754 0.045210 -1.240366 15.562034 0.000000 0.000000 0.000000 2.536550 8.051766 -21.438554 27.352871 -38.513648 9.718051 23.569737 7.965731 -20.763317 0.000000 0.000000 0.000000 -7.125000 0.000000 0.000000 -5.157896 52.379572 0.938518 0.000000 0.000000 0.000000 -4.625896 6.680326 22.496154 -34.478808 -44.436336 -14.447251 -32.900156 -13.312273 -13.570319 0.000000 0.000000 0.000000 7.125000 0.000000 0.000000 -3.731583 13.965084 -2.726567
0.663799 21.393149 -4.406432 217.287980 -84.519268 -203.767264 0.000000 0.000000 0.000000 -16.267720 -10.000825 -30.175894 5.592753 14.021616 43.324174 0.525742 -12.498889 -14.582960 0.658925 -5.187247 -14.444368 0.000000 0.000000 0.000000 23.707320 17.028684 -33.495113 -9.529693 -17.134509 57.901451 -0.916607 0.169427 -18.043670 -0.004260 -0.417642 1.147595 -2.423274 0.545102 5.630857 1.845436 0.565502 2.404079 3.226921 0.237850 -0.723873 -3.698307 0.803606 -7.490805 -0.465071 -0.250088 39.716007 0.241115 -1.428777 15.110840 0.000000 0.000000 0.000000 2.554481 7.457560 -21.401934 27.291325 -38.455548 9.679734 23.360394 7.053680 -20.408308 0.000000 0.000000 0.000000 -7.125000 0.000000 0.000000 -5.265788 51.966624 0.905398 0.000000 0.000000 0.000000 -4.298338 7.365652 22.719811 -34.029649 -44.106646 -14.133678 -34.915731 -10.755337 -11.284516 0.000000 0.000000 0.000000 7.125000 0.000000 0.000000 -5.387639 16.342687 -3.670330
0.930178 21.237099 -4.585433 232.587135 -87.152166 -219.589688 0.000000 0.000000 0.000000 -16.026196 -13.102085 -31.461664 6.267668 14.682815 46.046546 0.617032 -11.999060 -15.257827 0.290142 -3.463718 -9.572565 0.000000 0.000000 0.000000 25.048224 15.586037 -26.764886 -6.551103 -14.941816 47.155190 -2.023994 -1.087707 -27.320687 -0.000768 0.172198 -0.473132 -2.102429 0.707525 6.071090 1.910447 0.770463 3.003112 3.099837 0.320767 -0.364243 -3.973603 0.467305 -8.130287 -1.005465 -0.265394 39.366765 0.076212 -1.478961 15.093286 0.000000 0.000000 0.000000 2.247120 6.310983 -22.746107 27.680154 -38.820117 9.922604 23.038428 7.252539 -20.557338 0.000000 0.000000 0.000000 -7.125000 0.000000 0.000000 -5.633660 52.066061 0.982597 0.000000 0.000000 0.000000 -4.250791 6.784046 22.952747 -33.709153 -43.868062 -13.911119 -34.641013 -11.275996 -11.514281 0.000000 0.000000 0.000000 7.125000 0.000000 0.000000 -5.170380 16.110209 -3.547199
1.309910 21.283031 -4.736948 297.761868 -88.604877 -283.037549 0.000000 0.000000 0.000000 -14.896535 -15.188796 -36.042210 6.715817 15.087815 47.791218 0.254485 -13.982214 -12.605844 0.378392 -3.948474 -10.932123 0.000000 0.000000 0.000000 24.340387 14.436108 -29.691422 -6.069996 -14.495799 45.261952 -1.897045 -2.202725 -26.896474 -0.020549 0.875216 -2.405827 -0.934516 0.896830 6.173524 1.993760 1.089648 2.832656 2.503817 0.495243 -0.600248 -4.334663 0.044405 -8.492214 -1.561332 -0.413003 38.840562 -0.093589 -1.595884 14.928461 0.000000 0.000000 0.000000 1.361242 5.957807 -23.377684 28.322275 -39.411185 10.327654 23.142507 7.025285 -20.036482 0.000000 0.000000 0.000000 -7.125000 0.000000 0.000000 -5.377701 51.535535 0.867679 0.000000 0.000000 0.000000 -4.463873 5.377322 23.251794 -33.623641 -43.803862 -13.851914 -35.034035 -11.619518 -11.789516 0.000000 0.000000 0.000000 7.125000 0.000000 0.000000 -5.402615 15.721961 -3.753477
1.705037 21.368281 -4.799105 397.009202 -88.288715 -381.807232 0.000000 0.000000 0.000000 -15.998819 -15.110803 -37.324570 8.791215 16.670098 55.363296 1.419564 -10.828106 -21.524488 0.965803 -6.256149 -17.529803 0.000000 0.000000 0.000000 21.869999 13.382193 -32.628245 -6.226780 -14.644553 45.885221 -1.606406 -2.724742 -25.054389 -0.130075 2.324342 -6.402976 -1.627213 0.957361 5.962165 2.027556 1.133074 2.962284 2.930208 0.507231 -0.364834 -4.179694 -0.160723 -7.923589 -2.775810 -0.266774 37.913770 -0.570920 -1.613900 14.354126 0.000000 0.000000 0.000000 0.616899 7.430622 -24.779663 28.813238 -39.854165 10.640832 23.311294 6.724989 -20.102455 0.000000 0.000000 0.000000 -7.125000 0.000000 0.000000 -5.227458 51.634814 0.856162 0.000000 0.000000 0.000000 -6.351583 4.261706 25.300220 -34.873814 -44.721827 -14.724518 -34.899015 -12.105128 -11.943074 0.000000 0.000000 0.000000 7.125000 0.000000 0.000000 -5.290552 15.560095 -3.693447
2.095683 21.427729 -4.785680 383.525526 -88.353943 -369.037429 0.000000 0.000000 0.000000 -16.118434 -12.944696 -34.174927 11.798501 18.304112 65.348483 0.279480 -7.679272 -10.109433 0.675313 -5.254122 -14.634978 0.000000 0.000000 0.000000 21.918597 12.959658 -34.134815 -6.440515 -14.842070 46.725191 -1.337825 -1.830977 -22.581751 -0.057684 1.549163 -4.261357 0.068327 0.671277 5.437176 2.608368 0.831228 2.887646 2.597693 0.364013 -0.115745 -4.023427 0.110441 -7.481739 -3.880366 0.409440 37.911588 -0.958926 -1.458096 14.262210 0.000000 0.000000 0.000000 0.064504 8.643505 -23.937613 26.754870 -37.944295 9.348003 23.085436 5.954622 -20.902011 0.000000 0.000000 0.000000 -7.125000 0.000000 0.000000 -5.690031 52.437328 1.044357 0.000000 0.000000 0.000000 -6.524705 3.808936 24.254189 -35.186959 -44.945114 -14.945303 -35.158124 -12.365782 -11.356501 0.000000 0.000000 0.000000 7.125000 0.000000 0.000000 -5.543984 16.220000 -3.792849
2.459066 21.215805 -4.746320 331.984699 -88.769239 -319.522683 0.000000 0.000000 0.000000 -16.302622 -9.740986 -26.624562 11.111587 17.988664 63.142698 -0.417223 -11.382132 4.855483 0.128231 -2.301277 -6.339285 0.000000 0.000000 0.000000 23.049120 12.795179 -35.757681 -7.519721 -15.753844 50.812672 -1.281610 -1.328040 -21.911077 -0.155369 2.518384 -6.941667 1.385585 0.264680 4.926153 3.470260 0.327312 2.706492 2.774924 0.112140 0.009542 -4.014263 0.626274 -7.306131 -4.342226 1.213302 38.525480 -1.071365 -1.233858 14.529716 0.000000 0.000000 0.000000 -0.214984 10.148934 -23.316340 25.621540 -36.832540 8.659794 20.788315 4.802248 -22.654288 0.000000 0.000000 0.000000 -7.125000 0.000000 0.000000 -8.624942 53.831788 1.883594 0.000000 0.000000 0.000000 -6.321307 4.071664 23.102195 -32.467637 -42.916567 -13.058227 -34.288218 -10.888143 -10.768328 0.000000 0.000000 0.000000 7.125000 0.000000 0.000000 -5.021301 17.047931 -3.341547
2.934194 20.612718 -4.666274 311.020090 -88.621478 -299.514336 0.000000 0.000000 0.000000 -17.888372 -9.084803 -18.964141 6.373542 14.779635 46.460947 0.222133 -6.198787 13.281256 0.034214 -1.193073 -3.280268 0.000000 0.000000 0.000000 22.197412 13.241786 -42.353911 -10.494671 -17.678291 61.128597 -1.558247 0.891209 -23.346078 -0.050366 1.409007 -3.875399 1.746027 0.111432 4.111888 3.986263 0.136699 2.061238 3.114402 0.020149 -0.191749 -4.001115 0.692941 -7.521489 -4.490754 1.391744 38.385969 -1.110935 -1.183502 14.516299 0.000000 0.000000 0.000000 -0.205505 10.387212 -23.826204 25.390369 -36.600329 8.521580 19.254193 3.705403 -22.571193 0.000000 0.000000 0.000000 -7.125000 0.000000 0.000000 -10.149200 53.459134 2.128540 0.000000 0.000000 0.000000 -6.068554 4.659873 20.441901 -28.604230 -39.666265 -10.507234 -33.924795 -10.702883 -10.460810 0.000000 0.000000 0.000000 7.125000 0.000000 0.000000 -4.806915 17.462429 -3.154059
3.622059 19.561093 -4.549378 276.991449 -87.357100 -266.429257 0.000000 0.000000 0.000000 -18.099109 -11.073211 -14.873254 3.615835 11.630712 34.438118 0.235694 -1.691069 9.948882 0.553798 -4.734250 -13.158467 0.000000 0.000000 0.000000 21.156366 17.062990 -52.349161 -15.462041 -19.497748 76.623748 -1.524529 0.634423 -23.163973 -0.022597 0.961466 -2.642912 2.441061 0.207482 4.082166 4.612689 0.306926 1.484720 3.366084 0.100584 -0.773434 -3.289703 0.642812 -7.544672 -5.204345 1.476523 37.491442 -1.486638 -1.103074 14.107309 0.000000 0.000000 0.000000 -0.075274 9.023906 -24.219292 26.378464 -37.579959 9.117531 20.430814 3.505669 -22.401358 0.000000 0.000000 0.000000 -7.125000 0.000000 0.000000 -8.892532 53.504841 1.871284 0.000000 0.000000 0.000000 -6.300200 5.032066 18.989014 -25.412888 -36.622925 -8.535038 -33.274570 -9.781094 -9.389141 0.000000 0.000000 0.000000 7.125000 0.000000 0.000000 -4.474161 18.811316 -2.801007
